<svg width="581" height="284" viewBox="0 0 581 284" fill="none" xmlns="http://www.w3.org/2000/svg">
<rect x="59" y="1" width="419" height="276" rx="25" stroke="#D9D9D9" stroke-opacity="0.66" stroke-width="2"/>
<line x1="58" y1="37" x2="479" y2="37" stroke="#D9D9D9" stroke-opacity="0.66" stroke-width="2"/>
<line x1="120" y1="38" x2="120" y2="278" stroke="#D9D9D9" stroke-opacity="0.66" stroke-width="2"/>
<line x1="180" y1="38" x2="180" y2="278" stroke="#D9D9D9" stroke-opacity="0.66" stroke-width="2"/>
<line x1="240" y1="38" x2="240" y2="278" stroke="#D9D9D9" stroke-opacity="0.66" stroke-width="2"/>
<line x1="357" y1="37" x2="357" y2="277" stroke="#D9D9D9" stroke-opacity="0.66" stroke-width="2"/>
<line x1="418" y1="36" x2="418" y2="276" stroke="#D9D9D9" stroke-opacity="0.66" stroke-width="2"/>
<rect x="98" y="60" width="52" height="16" rx="8" fill="#27D8E3"/>
<rect x="101" y="62" width="12" height="12" rx="6" fill="#D9D9D9"/>
<rect x="170" y="164" width="52" height="16" rx="8" fill="#9747FF"/>
<rect x="173" y="166" width="12" height="12" rx="6" fill="#D9D9D9"/>
<rect x="247" y="214" width="35" height="16" rx="8" fill="#56F25C"/>
<rect x="250" y="216" width="12" height="12" rx="6" fill="#D9D9D9"/>
<rect x="345" y="268" width="52" height="16" rx="8" fill="#FCA464"/>
<rect x="348" y="270" width="12" height="12" rx="6" fill="#D9D9D9"/>
<rect x="342" y="64" width="35" height="16" rx="8" fill="#FB8EBC"/>
<rect x="345" y="66" width="12" height="12" rx="6" fill="#D9D9D9"/>
<rect x="435" y="36" width="74" height="16" rx="8" fill="#27D8E3"/>
<rect x="438" y="38" width="12" height="12" rx="6" fill="#D9D9D9"/>
<rect x="453" y="123" width="52" height="16" rx="8" fill="#82FF87"/>
<rect x="456" y="125" width="12" height="12" rx="6" fill="#D9D9D9"/>
<rect x="507" y="189" width="74" height="16" rx="8" fill="#CFB128"/>
<rect x="510" y="191" width="12" height="12" rx="6" fill="#D9D9D9"/>
<rect y="81" width="35" height="16" rx="8" fill="#9747FF"/>
<rect x="3" y="83" width="12" height="12" rx="6" fill="#D9D9D9"/>
<rect x="34" y="142" width="74" height="15" rx="7.5" fill="#CFB128"/>
<rect x="37" y="143.875" width="12" height="11.25" rx="5.625" fill="#D9D9D9"/>
<rect x="77" y="16" width="10" height="10" rx="5" fill="#D9D9D9"/>
<rect x="91" y="16" width="10" height="10" rx="5" fill="#D9D9D9"/>
<rect x="105" y="16" width="10" height="10" rx="5" fill="#D9D9D9"/>
</svg>
