<svg width="143" height="28" viewBox="0 0 143 28" fill="none" xmlns="http://www.w3.org/2000/svg">
<g id="fb">
<path id="Vector" d="M9.39246 27.3192H4.05379V13.9795H0.416992V9.63632H4.05365V6.54586C4.05365 2.88365 5.66215 0.257141 10.9864 0.257141C12.1124 0.257141 13.8803 0.484644 13.8803 0.484644V4.5175H12.0235C10.1315 4.5175 9.39274 5.09435 9.39274 6.68915V9.63632H13.8095L13.4162 13.9795H9.3926L9.39246 27.3192ZM21.6422 9.28925C21.5644 9.28925 21.4843 9.29209 21.4051 9.29408C16.4548 9.29408 14.1899 13.0264 14.1899 18.3246C14.1899 24.9989 17.1278 27.6701 21.4438 27.6701C23.9132 27.6701 25.5355 26.6283 26.5216 24.6842V27.3211H31.5995V9.63817H26.5216V12.3576C25.7165 10.608 24.0488 9.30998 21.6422 9.28925ZM22.9333 13.4677C25.0125 13.4677 26.2604 14.9213 26.2604 17.3939L26.2652 19.9193C26.2652 21.5858 25.2345 23.5355 22.9333 23.5355C19.3955 23.5355 19.49 19.7065 19.49 18.4313C19.49 14.1415 21.375 13.4677 22.9333 13.4677ZM33.6502 18.4805C33.6502 16.3318 33.5476 9.30075 42.6866 9.30075C46.3551 9.30075 47.8869 10.4699 47.8869 10.4699L46.6557 14.2976C46.6557 14.2976 45.1259 13.4532 43.1324 13.4532C40.5792 13.4532 38.95 14.9368 38.95 17.5471L38.9528 19.4188C38.9528 21.927 40.5248 23.6014 43.1377 23.6014C44.9537 23.6014 46.6275 22.749 46.6275 22.749L47.8556 26.4967C47.8556 26.4967 46.455 27.6733 42.7122 27.6733C34.0105 27.6733 33.6503 21.3651 33.6503 18.4805H33.6502ZM77.6601 9.29408C82.6106 9.29408 84.9112 13.0264 84.9112 18.3246C84.9112 24.9989 81.9732 27.6701 77.6572 27.6701C75.1878 27.6701 73.3624 26.6285 72.3763 24.6842V27.3211L67.3624 27.3191V0.794798L72.6859 0.329425V12.118C73.4542 10.0555 75.9791 9.29408 77.6601 9.29408ZM76.1677 13.4677C74.0885 13.4677 72.6859 14.9213 72.6859 17.3939L72.6809 19.9193C72.6778 21.5858 73.6523 23.5355 76.1677 23.5355C79.7054 23.5355 79.6109 19.7065 79.6109 18.4313C79.6109 14.1415 77.7262 13.4677 76.1677 13.4677ZM57.1237 9.3087C51.5089 9.3087 48.5446 12.3772 48.5446 17.8301V18.8432C48.5446 25.9207 52.7073 27.7429 57.6701 27.7429C62.4939 27.7429 64.6774 26.3905 64.6774 26.3905L63.6812 22.789C63.6812 22.789 61.1128 23.8844 58.3084 23.8844C55.4011 23.8844 54.1508 23.1417 53.8303 20.3412H65.103V17.452C65.103 11.5369 61.7762 9.30856 57.1235 9.30856L57.1237 9.3087ZM57.259 12.915C59.2025 12.915 60.4619 14.1096 60.3928 16.8801H53.8401C53.9537 13.9641 55.3119 12.915 57.259 12.915ZM95.5261 9.28442C89.7601 9.28442 86.7246 12.5413 86.7246 18.3779C86.7246 26.3859 91.9571 27.675 95.5357 27.675C100.774 27.675 104.26 24.8479 104.26 18.4506C104.26 11.7921 100.341 9.28442 95.5261 9.28442ZM95.4535 13.4822C97.9889 13.4822 98.9935 15.3841 98.9935 17.5491V19.4104C98.9935 22.0331 97.5878 23.5501 95.4439 23.5501C93.4388 23.5501 92.0297 22.1311 92.0297 19.4104V17.5491C92.0297 14.6475 93.7065 13.4822 95.4535 13.4822ZM114.865 9.28442C109.099 9.28442 106.064 12.5413 106.064 18.3779C106.064 26.3859 111.296 27.675 114.875 27.675C120.113 27.675 123.599 24.8479 123.599 18.4506C123.599 11.7921 119.68 9.28442 114.865 9.28442ZM114.793 13.4822C117.328 13.4822 118.333 15.3841 118.333 17.5491V19.4104C118.333 22.0331 116.927 23.5501 114.783 23.5501C112.778 23.5501 111.369 22.1311 111.369 19.4104V17.5491C111.369 14.6475 113.046 13.4822 114.793 13.4822ZM125.611 27.3192V0.794798L130.95 0.329425V18.1078L136.246 9.63632H141.885L136.359 18.4103L142.098 27.3192H136.443L130.95 18.6687V27.3192H125.611Z" fill="white"/>
</g>
</svg>
