<svg width="30" height="30" viewBox="0 0 30 30" fill="none" xmlns="http://www.w3.org/2000/svg">
<path id="github" d="M15 0.531738C13.0302 0.531738 11.0796 0.916103 9.25975 1.66289C7.43986 2.40967 5.78628 3.50425 4.3934 4.88413C1.58035 7.67092 0 11.4506 0 15.3917C0 21.9598 4.305 27.5323 10.26 29.5087C11.01 29.6276 11.25 29.1669 11.25 28.7657V26.2544C7.095 27.146 6.21 24.2631 6.21 24.2631C5.52 22.5394 4.545 22.0787 4.545 22.0787C3.18 21.1574 4.65 21.1871 4.65 21.1871C6.15 21.2911 6.945 22.7177 6.945 22.7177C8.25 24.9764 10.455 24.3077 11.31 23.9511C11.445 22.9852 11.835 22.3313 12.255 21.9598C8.925 21.5883 5.43 20.3104 5.43 14.6487C5.43 12.9993 6 11.6767 6.975 10.6217C6.825 10.2502 6.3 8.70473 7.125 6.69863C7.125 6.69863 8.385 6.29741 11.25 8.21435C12.435 7.88743 13.725 7.72397 15 7.72397C16.275 7.72397 17.565 7.88743 18.75 8.21435C21.615 6.29741 22.875 6.69863 22.875 6.69863C23.7 8.70473 23.175 10.2502 23.025 10.6217C24 11.6767 24.57 12.9993 24.57 14.6487C24.57 20.3252 21.06 21.5735 17.715 21.945C18.255 22.4056 18.75 23.3121 18.75 24.6941V28.7657C18.75 29.1669 18.99 29.6425 19.755 29.5087C25.71 27.5175 30 21.9598 30 15.3917C30 13.4403 29.612 11.508 28.8582 9.70506C28.1044 7.90216 26.9995 6.26401 25.6066 4.88413C24.2137 3.50425 22.5601 2.40967 20.7403 1.66289C18.9204 0.916103 16.9698 0.531738 15 0.531738Z" fill="white"/>
</svg>
