<svg width="110" height="34" viewBox="0 0 110 34" fill="none" xmlns="http://www.w3.org/2000/svg">
<g id="google">
<path id="Vector" d="M14.4799 12.1318V15.7636H23.2445C23.0118 17.7727 22.3138 19.3182 21.2279 20.3227C19.9869 21.5591 17.9702 22.95 14.4799 22.95C9.12805 22.95 4.93965 18.6227 4.93965 13.2909C4.93965 7.95909 9.05049 3.63182 14.4799 3.63182C17.3497 3.63182 19.5215 4.79091 21.0728 6.25909L23.6323 3.70909C21.4606 1.62273 18.5132 0 14.4799 0C7.11141 0 0.906372 5.95 0.906372 13.2909C0.906372 20.6318 7.11141 26.5818 14.4799 26.5818C18.4356 26.5818 21.4606 25.2682 23.7875 22.8727C26.1919 20.4773 26.9675 17.0773 26.9675 14.3727C26.9675 13.5227 26.89 12.75 26.8124 12.1318H14.4799Z" fill="white"/>
<path id="Vector_2" d="M37.8264 9.11819C33.0951 9.11819 29.1393 12.75 29.1393 17.6955C29.1393 22.6409 33.0175 26.2727 37.8264 26.2727C42.6353 26.2727 46.5135 22.7182 46.5135 17.7727C46.5135 12.75 42.6353 9.11819 37.8264 9.11819ZM37.8264 22.95C35.1893 22.95 32.9399 20.7864 32.9399 17.7727C32.9399 14.6818 35.1893 12.5955 37.8264 12.5955C40.4635 12.5955 42.7129 14.6818 42.7129 17.7727C42.7129 20.7864 40.4635 22.95 37.8264 22.95Z" fill="white"/>
<path id="Vector_3" d="M80.2533 11.05H80.0982C79.245 10.0455 77.6162 9.11819 75.522 9.11819C71.1785 9.11819 67.4554 12.8273 67.4554 17.6955C67.4554 22.4864 71.1785 26.2727 75.522 26.2727C77.6162 26.2727 79.245 25.3455 80.0982 24.3409H80.2533V25.5773C80.2533 28.8227 78.4694 30.6 75.6771 30.6C73.3502 30.6 71.9541 28.9773 71.3336 27.5091L68.0759 28.9C69.0067 31.1409 71.5663 34 75.7547 34C80.1758 34 83.9764 31.3727 83.9764 25.0364V9.58183H80.4085V11.05H80.2533ZM75.9098 22.95C73.2727 22.95 71.3336 20.7091 71.3336 17.7727C71.3336 14.7591 73.3502 12.5955 75.9098 12.5955C78.4694 12.5955 80.486 14.8364 80.486 17.85C80.5636 20.7864 78.5469 22.95 75.9098 22.95Z" fill="white"/>
<path id="Vector_4" d="M57.1396 9.11819C52.4082 9.11819 48.4525 12.75 48.4525 17.6955C48.4525 22.6409 52.3307 26.2727 57.1396 26.2727C61.9485 26.2727 65.8266 22.7182 65.8266 17.7727C65.8266 12.75 61.9485 9.11819 57.1396 9.11819ZM57.1396 22.95C54.5024 22.95 52.2531 20.7864 52.2531 17.7727C52.2531 14.6818 54.5024 12.5955 57.1396 12.5955C59.7767 12.5955 62.026 14.6818 62.026 17.7727C62.026 20.7864 59.7767 22.95 57.1396 22.95Z" fill="white"/>
<path id="Vector_5" d="M86.8462 0.386353H90.5692V26.35H86.8462V0.386353Z" fill="white"/>
<path id="Vector_6" d="M102.049 22.95C100.109 22.95 98.7909 22.1 97.8601 20.3227L109.417 15.6091L109.029 14.6046C108.331 12.6727 106.082 9.11819 101.661 9.11819C97.2396 9.11819 93.5166 12.5955 93.5166 17.6955C93.5166 22.4864 97.1621 26.2727 102.049 26.2727C106.004 26.2727 108.254 23.8773 109.262 22.4864L106.314 20.5546C105.306 22.0227 103.988 22.95 102.049 22.95ZM101.816 12.3636C103.367 12.3636 104.686 13.1364 105.073 14.2182L97.3172 17.4636C97.2396 13.9091 99.8768 12.3636 101.816 12.3636Z" fill="white"/>
</g>
</svg>
