<svg width="31" height="31" viewBox="0 0 31 31" fill="none" xmlns="http://www.w3.org/2000/svg">
<g id="linkedin">
<circle id="Ellipse 3" cx="15.0317" cy="15.5" r="15" fill="white"/>
<path id="Vector" d="M18.3272 11.7049C17.6916 11.7049 17.2209 11.8652 16.8525 12.0677C16.7934 11.8577 16.5994 11.704 16.3706 11.7499H13.5731C13.2966 11.704 13.0725 11.928 13.1578 12.2186V22.5311C13.0725 22.7936 13.2966 23.0186 13.5731 22.9999H16.3706C16.6472 23.0186 16.8713 22.7936 16.8713 22.5171L16.8703 16.2846C16.8694 16.2818 16.8591 15.9836 17.0475 15.7783C17.1984 15.6152 17.4581 15.5318 17.8172 15.5318C18.4153 15.5318 18.6816 15.7765 18.7809 16.324V22.5171C18.6825 22.7936 18.9066 23.0186 19.1831 22.9999H22.1316C22.4081 23.0186 22.6322 22.7936 22.5328 22.5171V16.1158C22.6312 12.8608 20.3128 11.7049 18.3272 11.7049ZM21.63 22.0624H19.6838V16.324C19.6838 15.2168 18.9684 14.5305 17.8181 14.5305C17.1675 14.5305 16.6613 14.7218 16.3125 15.0986C15.8278 15.6236 15.8653 16.2893 15.9694 16.4374V22.0624H14.0738V12.7061H15.87V13.0211C15.8693 13.115 15.895 13.2071 15.9443 13.287C15.9936 13.3668 16.0644 13.4312 16.1486 13.4726C16.2328 13.514 16.327 13.5308 16.4203 13.5211C16.5137 13.5114 16.6024 13.4756 16.6763 13.4177L16.8075 13.3165C17.1872 13.0174 17.58 12.7071 18.3281 12.7071C19.1025 12.7071 21.6309 12.9536 21.6309 16.1168L21.63 22.0624ZM10.3444 7.03052C9.2925 7.03052 8.4375 7.88552 8.4375 8.93739C8.4375 9.98927 9.2925 10.8443 10.3444 10.8443C11.3963 10.8443 12.2513 9.98927 12.2513 8.93739C12.2513 7.88552 11.3963 7.03052 10.3444 7.03052ZM10.3444 9.84302C9.84563 9.84302 9.43875 9.43614 9.43875 8.93739C9.43875 8.43864 9.84563 8.03177 10.3444 8.03177C10.8431 8.03177 11.25 8.43864 11.25 8.93739C11.25 9.43614 10.8431 9.84302 10.3444 9.84302ZM11.6831 11.704H8.90063C8.62406 11.704 8.4 11.928 8.46938 12.2186V22.5311C8.4 22.7936 8.62406 23.0186 8.90063 22.9999H11.6831C11.9597 23.0186 12.1838 22.7936 12.1838 22.5171V12.2046C12.1838 12.0718 12.131 11.9445 12.0371 11.8506C11.9432 11.7567 11.8159 11.704 11.6831 11.704ZM11.2819 22.0624H9.40125V12.7061H11.2819V22.0624Z" fill="#0D0B02"/>
<path id="Vector_2" d="M15.0319 0.468018C6.7425 0.468018 0 7.21052 0 15.4999C0 23.7893 6.7425 30.5318 15.0319 30.5318C23.3213 30.5318 30.0638 23.7893 30.0638 15.4999C30.0638 7.21052 23.3213 0.468018 15.0319 0.468018ZM15.0319 29.5305C7.29563 29.5305 1.00125 23.2361 1.00125 15.4999C1.00125 7.76364 7.29563 1.46927 15.0319 1.46927C22.7681 1.46927 29.0625 7.76364 29.0625 15.4999C29.0625 23.2361 22.7681 29.5305 15.0319 29.5305Z" fill="#0D0B02"/>
</g>
</svg>
