<svg width="178" height="48" viewBox="0 0 178 48" fill="none" xmlns="http://www.w3.org/2000/svg">
<g id="logos:netflix" clip-path="url(#clip0_182_137)">
<path id="Vector" d="M118.431 0V34.8532C122.728 35.0532 127.014 35.295 131.288 35.5802V42.9697C124.509 42.5175 117.724 42.1744 110.935 41.9405V0H118.431ZM178 0.00417391L168.239 22.6456L177.997 47.8414L177.987 47.8459C175.141 47.4409 172.293 47.0556 169.443 46.6901L163.963 32.5489L158.43 45.3774C155.806 45.0873 153.18 44.8137 150.552 44.5565L160.067 22.4939L151.353 0.00452174H159.462L164.341 12.5903L169.767 0.00417391H178ZM85.208 41.5743V0.00382609H106.133V7.45983H92.7041V17.1224H102.865V24.512H92.7041V41.5729L85.208 41.5743ZM57.2171 7.46017V0.00347826H80.4023V7.45983H72.5574V41.7763C70.0554 41.8424 67.5561 41.9197 65.062 42.0139V7.46017H57.2171ZM31.5907 44.1621V0.00486957H52.4118V7.46052H39.0858V17.56C42.1473 17.5207 46.5003 17.4765 49.2085 17.4828V24.873C45.8185 24.8313 41.9919 24.9197 39.0858 24.9485V36.136C43.5245 35.786 47.9668 35.4823 52.4118 35.2247V42.615C45.4634 43.016 38.522 43.532 31.5907 44.1628V44.1621ZM16.8859 27.0797L16.8855 0.00347826H24.3817V44.8591C21.6414 45.1409 18.9061 45.441 16.1759 45.7579L7.49531 20.8083V46.8264C4.99471 47.152 2.49606 47.4924 -0.00050354 47.8477V0.00417391H7.12332L16.8859 27.0797ZM137.472 43.4153V0.00417391H144.968V44.0348C142.473 43.8122 139.975 43.6066 137.472 43.4153Z" fill="white"/>
</g>
<defs>
<clipPath id="clip0_182_137">
<rect width="178" height="48" fill="white"/>
</clipPath>
</defs>
</svg>
