<svg width="30" height="31" viewBox="0 0 30 31" fill="none" xmlns="http://www.w3.org/2000/svg">
<circle cx="15" cy="15.5317" r="15" fill="white"/>
<path d="M16.6147 15.8827C16.6147 19.3901 13.7908 22.2334 10.3075 22.2334C6.82416 22.2334 4 19.3901 4 15.8827C4 12.3753 6.82394 9.53174 10.3075 9.53174C13.791 9.53174 16.6147 12.3753 16.6147 15.8827Z" fill="#0D0B02"/>
<path d="M23.534 15.8827C23.534 19.1842 22.1221 21.8617 20.3803 21.8617C18.6385 21.8617 17.2266 19.1842 17.2266 15.8827C17.2266 12.5813 18.6383 9.90381 20.3801 9.90381C22.1219 9.90381 23.5338 12.5804 23.5338 15.8827" fill="#0D0B02"/>
<path d="M26.3641 15.8828C26.3641 18.8401 25.8676 21.239 25.255 21.239C24.6423 21.239 24.146 18.8407 24.146 15.8828C24.146 12.9248 24.6425 10.5266 25.255 10.5266C25.8674 10.5266 26.3641 12.9246 26.3641 15.8828Z" fill="#0D0B02"/>
</svg>
