<svg width="194" height="42" viewBox="0 0 194 42" fill="none" xmlns="http://www.w3.org/2000/svg">
<g id="logos:microsoft" clip-path="url(#clip0_182_131)">
<path id="Vector" d="M194 18.8805V15.4423H189.763V10.0976L189.621 10.1415L185.641 11.3686L185.563 11.3927V15.4423H179.282V13.1865C179.282 12.1361 179.515 11.332 179.974 10.7963C180.431 10.2663 181.083 9.99714 181.915 9.99714C182.514 9.99714 183.133 10.1392 183.757 10.4191L183.913 10.4893V6.8689L183.839 6.84218C183.258 6.63103 182.466 6.52527 181.486 6.52527C180.25 6.52527 179.128 6.79598 178.148 7.3332C177.183 7.85623 176.388 8.6484 175.858 9.61494C175.32 10.5901 175.047 11.7161 175.047 12.9623V15.4426H172.097V18.8809H175.047V33.3644H179.282V18.8805H185.563V28.0846C185.563 31.8753 187.337 33.7966 190.837 33.7966C191.441 33.7931 192.044 33.7255 192.635 33.595C193.264 33.4587 193.692 33.3224 193.944 33.1769L194 33.1437V29.6738L193.828 29.7887C193.598 29.9433 193.312 30.0693 192.976 30.1629C192.639 30.2583 192.357 30.3064 192.14 30.3064C191.32 30.3064 190.713 30.0838 190.337 29.6444C189.956 29.2014 189.763 28.426 189.763 27.3416V18.8805H194ZM162.639 30.3068C161.101 30.3068 159.89 29.7929 159.035 28.7814C158.176 27.7643 157.741 26.3149 157.741 24.4726C157.741 22.5723 158.176 21.0851 159.036 20.05C159.89 19.0222 161.091 18.5002 162.604 18.5002C164.072 18.5002 165.241 18.9985 166.079 19.9824C166.92 20.971 167.347 22.4463 167.347 24.3688C167.347 26.3149 166.946 27.8101 166.154 28.8101C165.368 29.8028 164.185 30.3068 162.639 30.3068ZM162.827 15.0104C159.895 15.0104 157.565 15.8764 155.905 17.5843C154.245 19.2925 153.403 21.656 153.403 24.6105C153.403 27.4165 154.225 29.6734 155.845 31.3179C157.465 32.9627 159.67 33.7959 162.398 33.7959C165.241 33.7959 167.524 32.9181 169.184 31.1865C170.844 29.4569 171.685 27.1156 171.685 24.2298C171.685 21.3803 170.896 19.1066 169.339 17.4731C167.781 15.839 165.59 15.0104 162.827 15.0104ZM146.575 15.0104C144.58 15.0104 142.929 15.5247 141.669 16.5384C140.401 17.5583 139.758 18.8962 139.758 20.5147C139.758 21.3559 139.896 22.1031 140.17 22.7369C140.445 23.373 140.87 23.9327 141.435 24.4028C141.996 24.869 142.862 25.3573 144.01 25.8537C144.974 26.2538 145.694 26.5925 146.151 26.859C146.597 27.1205 146.914 27.3832 147.093 27.6391C147.267 27.8891 147.355 28.232 147.355 28.6547C147.355 29.8589 146.461 30.4446 144.62 30.4446C143.937 30.4446 143.158 30.3011 142.304 30.0178C141.457 29.7386 140.658 29.33 139.933 28.8063L139.758 28.6795V32.7879L139.822 32.8184C140.422 33.0971 141.177 33.332 142.067 33.5171C142.956 33.7019 143.763 33.7962 144.465 33.7962C146.63 33.7962 148.373 33.2796 149.645 32.2598C150.926 31.2327 151.574 29.8639 151.574 28.1889C151.574 26.9812 151.225 25.9449 150.536 25.1095C149.853 24.281 148.666 23.52 147.011 22.8476C145.692 22.3142 144.848 21.8717 144.499 21.5319C144.163 21.2035 143.993 20.7392 143.993 20.1516C143.993 19.63 144.203 19.2127 144.636 18.8744C145.071 18.5346 145.678 18.3616 146.438 18.3616C147.144 18.3616 147.866 18.4739 148.584 18.6938C149.301 18.9141 149.931 19.2093 150.457 19.5697L150.63 19.6888V15.7912L150.564 15.7626C150.079 15.5526 149.438 15.3731 148.662 15.228C147.887 15.0837 147.185 15.0104 146.575 15.0104ZM128.717 30.3068C127.18 30.3068 125.968 29.7929 125.114 28.7814C124.254 27.7643 123.82 26.3149 123.82 24.4726C123.82 22.5723 124.255 21.0851 125.115 20.05C125.969 19.0222 127.169 18.5002 128.683 18.5002C130.151 18.5002 131.32 18.9985 132.157 19.9824C132.999 20.971 133.426 22.4463 133.426 24.3688C133.426 26.3149 133.024 27.8101 132.232 28.8101C131.446 29.8028 130.263 30.3068 128.717 30.3068ZM128.906 15.0104C125.972 15.0104 123.643 15.8764 121.983 17.5843C120.324 19.2925 119.481 21.656 119.481 24.6105C119.481 27.4176 120.303 29.6734 121.923 31.3179C123.544 32.9627 125.748 33.7959 128.477 33.7959C131.319 33.7959 133.603 32.9181 135.263 31.1865C136.922 29.4569 137.764 27.1156 137.764 24.2298C137.764 21.3803 136.974 19.1066 135.417 17.4731C133.858 15.839 131.668 15.0104 128.906 15.0104ZM113.052 18.5461V15.4423H108.869V33.3637H113.052V24.1958C113.052 22.6368 113.403 21.3562 114.095 20.3891C114.778 19.4334 115.689 18.9489 116.8 18.9489C117.178 18.9489 117.6 19.0115 118.058 19.1356C118.512 19.2585 118.841 19.3922 119.034 19.5327L119.21 19.6613V15.4117L119.142 15.3823C118.753 15.2154 118.201 15.1315 117.504 15.1315C116.453 15.1315 115.512 15.4717 114.706 16.1417C113.999 16.7309 113.487 17.5388 113.097 18.5461H113.052ZM101.377 15.0104C99.458 15.0104 97.7457 15.4255 96.2895 16.2429C94.8308 17.0619 93.702 18.2322 92.9343 19.7194C92.1701 21.2035 91.7821 22.937 91.7821 24.8701C91.7821 26.5631 92.1583 28.1171 92.9017 29.4863C93.6459 30.8582 94.6993 31.9315 96.0323 32.676C97.3637 33.4194 98.9025 33.7962 100.606 33.7962C102.594 33.7962 104.291 33.3957 105.653 32.6061L105.707 32.5741V28.712L105.532 28.8414C104.906 29.2987 104.216 29.6605 103.485 29.9151C102.745 30.1751 102.072 30.3064 101.481 30.3064C99.8388 30.3064 98.5213 29.7891 97.5646 28.7688C96.6059 27.7467 96.1198 26.3122 96.1198 24.5066C96.1198 22.6899 96.6268 21.2184 97.6256 20.1321C98.6217 19.0497 99.9418 18.5006 101.55 18.5006C102.925 18.5006 104.264 18.9699 105.532 19.8965L105.707 20.0248V15.9554L105.651 15.9233C105.173 15.6542 104.523 15.4319 103.715 15.2636C102.911 15.0956 102.125 15.0104 101.377 15.0104ZM88.9009 15.4423H84.717V33.3637H88.9009V15.4423ZM86.8518 7.8078C86.1633 7.8078 85.5627 8.04414 85.0694 8.51187C84.5738 8.9815 84.3222 9.57256 84.3222 10.2698C84.3222 10.9563 84.5707 11.5362 85.061 11.9933C85.5487 12.4488 86.1512 12.6798 86.8518 12.6798C87.552 12.6798 88.1567 12.4488 88.65 11.9941C89.1464 11.5363 89.3984 10.9563 89.3984 10.2698C89.3984 9.597 89.1532 9.01167 88.6705 8.53096C88.1882 8.05101 87.5758 7.8078 86.8518 7.8078ZM76.4136 14.1204V33.3633H80.6832V8.35647H74.7741L67.2631 26.9308L59.9744 8.35647H53.8248V33.3637H57.837V14.1185H57.9749L65.6717 33.3637H68.6991L76.2757 14.12L76.4136 14.1204Z" fill="white"/>
<path id="Vector_2" d="M19.68 19.8313H0V0H19.68V19.8313Z" fill="white"/>
<path id="Vector_3" d="M41.4095 19.8313H21.7295V0H41.4095V19.8313Z" fill="white"/>
<path id="Vector_4" d="M19.6796 41.7354H0V21.9042H19.6796V41.7354Z" fill="white"/>
<path id="Vector_5" d="M41.4095 41.7354H21.7295V21.9042H41.4095V41.7354Z" fill="white"/>
</g>
<defs>
<clipPath id="clip0_182_131">
<rect width="194" height="42" fill="white"/>
</clipPath>
</defs>
</svg>
