<svg width="73" height="20" viewBox="0 0 73 20" fill="none" xmlns="http://www.w3.org/2000/svg">
<path d="M9.66667 17.3333C11.183 17.3333 12.6653 16.8837 13.926 16.0413C15.1868 15.1989 16.1695 14.0015 16.7498 12.6006C17.33 11.1997 17.4818 9.65817 17.186 8.17098C16.8902 6.68379 16.16 5.31772 15.0878 4.24552C14.0156 3.17332 12.6496 2.44314 11.1624 2.14732C9.67517 1.8515 8.13366 2.00332 6.73276 2.58359C5.33186 3.16387 4.13449 4.14652 3.29207 5.4073C2.44964 6.66808 2 8.15035 2 9.66667" stroke="#CFB128" stroke-width="4" stroke-linecap="round"/>
<path d="M36.5 17.3333C40.7342 17.3333 44.1667 13.9009 44.1667 9.66667C44.1667 5.43248 40.7342 2 36.5 2C32.2658 2 28.8333 5.43248 28.8333 9.66667C28.8333 13.9009 32.2658 17.3333 36.5 17.3333Z" fill="#CFB128" stroke="#CFB128" stroke-width="4"/>
<path d="M71 9.66667C71 11.183 70.5504 12.6653 69.708 13.926C68.8655 15.1868 67.6682 16.1695 66.2673 16.7498C64.8664 17.33 63.3249 17.4818 61.8377 17.186C60.3505 16.8902 58.9844 16.16 57.9122 15.0878C56.84 14.0156 56.1098 12.6496 55.814 11.1624C55.5182 9.67517 55.67 8.13366 56.2503 6.73276C56.8306 5.33186 57.8132 4.13449 59.074 3.29207C60.3348 2.44964 61.817 2 63.3334 2" stroke="#CFB128" stroke-width="4" stroke-linecap="round"/>
</svg>
