<svg width="148" height="45" viewBox="0 0 148 45" fill="none" xmlns="http://www.w3.org/2000/svg">
<g id="spotify">
<g id="g12">
<path id="path14" d="M35.3232 19.6977C28.1689 15.4444 16.3681 15.0533 9.53853 17.1284C8.44175 17.4614 7.28203 16.8416 6.9497 15.7436C6.61738 14.6452 7.23586 13.4849 8.33335 13.1511C16.1733 10.7685 29.206 11.2289 37.4421 16.1233C38.4288 16.7094 38.7524 17.9849 38.1675 18.971C37.5823 19.9585 36.3072 20.284 35.3232 19.6977ZM35.0889 25.9976C34.5872 26.8131 33.5223 27.0685 32.7089 26.5682C26.7444 22.8978 17.6492 21.8345 10.5927 23.9787C9.67767 24.2556 8.71113 23.7391 8.43327 22.8247C8.15745 21.9086 8.67365 20.9427 9.58708 20.6641C17.6482 18.2154 27.6691 19.4015 34.5196 23.6161C35.333 24.1175 35.589 25.1842 35.0889 25.9976ZM32.3731 32.0479C31.9745 32.7025 31.1227 32.9078 30.4712 32.5088C25.2592 29.3199 18.6992 28.5995 10.9735 30.3663C10.2289 30.5372 9.48706 30.0699 9.31717 29.3249C9.14668 28.5796 9.61141 27.837 10.3576 27.6669C18.812 25.732 26.0643 26.5647 31.9143 30.1434C32.5666 30.5421 32.772 31.3952 32.3731 32.0479ZM22.1945 3.8147e-06C9.937 3.8147e-06 -0.00012207 9.9476 -0.00012207 22.2188C-0.00012207 34.491 9.937 44.4384 22.1945 44.4384C34.4525 44.4384 44.3891 34.491 44.3891 22.2188C44.3891 9.9476 34.4525 3.8147e-06 22.1945 3.8147e-06Z" fill="white"/>
<path id="path16" d="M60.3837 20.5121C56.5516 19.5972 55.8691 18.9551 55.8691 17.6062C55.8691 16.3314 57.0681 15.4738 58.8507 15.4738C60.5787 15.4738 62.2919 16.1252 64.0885 17.4662C64.1429 17.5067 64.211 17.5229 64.278 17.5123C64.3451 17.5022 64.4042 17.4656 64.4437 17.4099L66.3148 14.7694C66.3917 14.6609 66.3707 14.5107 66.2671 14.4276C64.1291 12.7102 61.7215 11.8752 58.9074 11.8752C54.7698 11.8752 51.8796 14.3608 51.8796 17.9177C51.8796 21.7319 54.3728 23.0823 58.6811 24.1247C62.3481 24.9703 62.9669 25.6786 62.9669 26.9452C62.9669 28.3485 61.7154 29.2209 59.7015 29.2209C57.4649 29.2209 55.6401 28.4666 53.5991 26.6971C53.5485 26.6536 53.4791 26.6335 53.4149 26.6371C53.3476 26.6427 53.2859 26.674 53.2429 26.7257L51.1449 29.2254C51.057 29.3291 51.0681 29.4841 51.1696 29.5737C53.5445 31.6961 56.4649 32.8173 59.6167 32.8173C64.0753 32.8173 66.9564 30.3782 66.9564 26.6034C66.9564 23.4132 65.0525 21.6489 60.3837 20.5121Z" fill="white"/>
<path id="path18" d="M80.2805 24.7878C80.2805 27.4817 78.6229 29.3615 76.2496 29.3615C73.9033 29.3615 72.1334 27.3963 72.1334 24.7878C72.1334 22.1797 73.9033 20.2142 76.2496 20.2142C78.5848 20.2142 80.2805 22.1372 80.2805 24.7878ZM77.0439 16.7285C75.1113 16.7285 73.5261 17.4906 72.219 19.052V17.2945C72.219 17.1557 72.1066 17.0427 71.968 17.0427H68.5369C68.3983 17.0427 68.2862 17.1557 68.2862 17.2945V36.823C68.2862 36.9618 68.3983 37.0748 68.5369 37.0748H71.968C72.1066 37.0748 72.219 36.9618 72.219 36.823V30.659C73.5264 32.1278 75.1118 32.8452 77.0439 32.8452C80.6348 32.8452 84.27 30.0778 84.27 24.7878C84.27 19.4966 80.6348 16.7285 77.0439 16.7285Z" fill="white"/>
<path id="path20" d="M93.588 29.3897C91.1282 29.3897 89.2738 27.4111 89.2738 24.7878C89.2738 22.1535 91.0641 20.2418 93.5312 20.2418C96.0069 20.2418 97.8738 22.2203 97.8738 24.8453C97.8738 27.4793 96.0713 29.3897 93.588 29.3897ZM93.588 16.7285C88.9634 16.7285 85.3405 20.2935 85.3405 24.8453C85.3405 29.3477 88.9385 32.8753 93.5312 32.8753C98.1722 32.8753 101.806 29.3223 101.806 24.7878C101.806 20.2686 98.1971 16.7285 93.588 16.7285Z" fill="white"/>
<path id="path22" d="M111.682 17.0427H107.906V13.178C107.906 13.0392 107.794 12.9264 107.655 12.9264H104.225C104.086 12.9264 103.973 13.0392 103.973 13.178V17.0427H102.323C102.185 17.0427 102.073 17.1557 102.073 17.2945V20.2467C102.073 20.3854 102.185 20.4983 102.323 20.4983H103.973V28.1375C103.973 31.2247 105.508 32.7898 108.535 32.7898C109.765 32.7898 110.787 32.5353 111.749 31.989C111.827 31.9453 111.876 31.8609 111.876 31.7712V28.9599C111.876 28.873 111.83 28.7913 111.757 28.7457C111.682 28.6988 111.589 28.6964 111.512 28.7343C110.851 29.0672 110.212 29.2209 109.498 29.2209C108.397 29.2209 107.906 28.7208 107.906 27.5992V20.4983H111.682C111.82 20.4983 111.932 20.3854 111.932 20.2467V17.2945C111.932 17.1557 111.82 17.0427 111.682 17.0427Z" fill="white"/>
<path id="path24" d="M124.837 17.0578V16.5831C124.837 15.1867 125.372 14.564 126.572 14.564C127.287 14.564 127.861 14.7062 128.505 14.9211C128.584 14.9461 128.667 14.9336 128.731 14.8861C128.798 14.8386 128.835 14.7625 128.835 14.6818V11.7871C128.835 11.6765 128.764 11.5786 128.658 11.5462C127.978 11.3438 127.108 11.1357 125.806 11.1357C122.636 11.1357 120.961 12.9224 120.961 16.3008V17.0278H119.313C119.174 17.0278 119.061 17.1406 119.061 17.2794V20.2467C119.061 20.3854 119.174 20.4983 119.313 20.4983H120.961V32.2814C120.961 32.4202 121.073 32.5329 121.211 32.5329H124.642C124.781 32.5329 124.894 32.4202 124.894 32.2814V20.4983H128.098L133.005 32.2783C132.448 33.516 131.9 33.7623 131.152 33.7623C130.548 33.7623 129.911 33.5815 129.26 33.225C129.199 33.1912 129.127 33.1857 129.06 33.2061C128.995 33.2294 128.94 33.278 128.912 33.342L127.749 35.8962C127.694 36.0169 127.741 36.1587 127.857 36.2213C129.071 36.8795 130.167 37.1605 131.522 37.1605C134.055 37.1605 135.456 35.9788 136.69 32.8001L142.643 17.4006C142.673 17.3231 142.664 17.2358 142.617 17.1669C142.57 17.0989 142.494 17.0578 142.41 17.0578H138.838C138.731 17.0578 138.635 17.1257 138.6 17.2263L134.941 27.6902L130.933 17.2194C130.897 17.122 130.803 17.0578 130.699 17.0578H124.837Z" fill="white"/>
<path id="path26" d="M117.211 17.0427H113.779C113.641 17.0427 113.528 17.1557 113.528 17.2945V32.2814C113.528 32.4202 113.641 32.5329 113.779 32.5329H117.211C117.349 32.5329 117.462 32.4202 117.462 32.2814V17.2945C117.462 17.1557 117.349 17.0427 117.211 17.0427Z" fill="white"/>
<path id="path28" d="M115.512 10.2188C114.153 10.2188 113.05 11.3207 113.05 12.6813C113.05 14.0429 114.153 15.1459 115.512 15.1459C116.871 15.1459 117.973 14.0429 117.973 12.6813C117.973 11.3207 116.871 10.2188 115.512 10.2188Z" fill="white"/>
<path id="path30" d="M145.713 18.5335H145.084V19.3361H145.713C146.027 19.3361 146.214 19.1824 146.214 18.9346C146.214 18.6735 146.027 18.5335 145.713 18.5335ZM146.121 19.6784L146.804 20.6359H146.228L145.613 19.7577H145.084V20.6359H144.602V18.0981H145.733C146.321 18.0981 146.709 18.3999 146.709 18.9076C146.709 19.3235 146.469 19.5778 146.121 19.6784ZM145.585 17.2539C144.348 17.2539 143.412 18.238 143.412 19.4435C143.412 20.6483 144.342 21.6194 145.573 21.6194C146.809 21.6194 147.746 20.6359 147.746 19.4298C147.746 18.225 146.816 17.2539 145.585 17.2539ZM145.573 21.8612C144.215 21.8612 143.158 20.7693 143.158 19.4435C143.158 18.1175 144.228 17.0132 145.585 17.0132C146.943 17.0132 148 18.105 148 19.4298C148 20.7558 146.93 21.8612 145.573 21.8612Z" fill="white"/>
</g>
</g>
</svg>
