<svg width="133" height="30" viewBox="0 0 133 30" fill="none" xmlns="http://www.w3.org/2000/svg">
<g id="yt">
<g id="g12">
<path id="path14" d="M65.8665 24.1505C66.0969 23.551 66.2126 22.5712 66.2126 21.2115V15.4821C66.2126 14.1624 66.0969 13.1978 65.8665 12.5877C65.6357 11.9779 65.2292 11.6727 64.6474 11.6727C64.0854 11.6727 63.6886 11.9779 63.4582 12.5877C63.2274 13.1978 63.112 14.1624 63.112 15.4821V21.2115C63.112 22.5712 63.2222 23.551 63.4433 24.1505C63.6637 24.7507 64.0649 25.0503 64.6474 25.0503C65.2292 25.0503 65.6357 24.7507 65.8665 24.1505ZM61.2006 27.0302C60.3673 26.4709 59.7751 25.6006 59.4244 24.4205C59.073 23.2411 58.8977 21.6712 58.8977 19.7115V17.0419C58.8977 15.0623 59.098 13.4724 59.4996 12.2727C59.9009 11.0729 60.5277 10.1983 61.3812 9.64823C62.2339 9.09851 63.3528 8.82337 64.7379 8.82337C66.1024 8.82337 67.196 9.10351 68.019 9.66318C68.8416 10.223 69.4439 11.0982 69.8254 12.2877C70.2062 13.4776 70.3971 15.0623 70.3971 17.0419V19.7115C70.3971 21.6712 70.2114 23.2462 69.8403 24.4358C69.4688 25.6256 68.8666 26.4954 68.0339 27.045C67.2009 27.595 66.0723 27.8701 64.6474 27.8701C63.182 27.8701 62.033 27.5899 61.2006 27.0302Z" fill="white"/>
<path id="path16" d="M125.666 12.0165C125.456 12.2764 125.315 12.7015 125.245 13.2911C125.174 13.8812 125.14 14.7759 125.14 15.9757V17.2955H128.18V15.9757C128.18 14.7961 128.14 13.9013 128.06 13.2911C127.979 12.6814 127.834 12.2517 127.623 12.0015C127.412 11.7515 127.086 11.6263 126.645 11.6263C126.203 11.6263 125.877 11.7567 125.666 12.0165ZM125.14 19.7552V20.6851C125.14 21.8652 125.174 22.7499 125.245 23.3396C125.315 23.9296 125.46 24.3596 125.681 24.6296C125.902 24.8993 126.243 25.0346 126.705 25.0346C127.327 25.0346 127.754 24.7945 127.984 24.3144C128.215 23.8345 128.34 23.0348 128.36 21.9147L131.943 22.1248C131.963 22.2853 131.973 22.5051 131.973 22.7846C131.973 24.4846 131.507 25.7545 130.573 26.5943C129.64 27.4339 128.32 27.854 126.615 27.854C124.568 27.854 123.132 27.2143 122.31 25.9341C121.487 24.6549 121.075 22.6751 121.075 19.9952V16.7856C121.075 14.026 121.502 12.0118 122.355 10.7415C123.208 9.47181 124.668 8.83687 126.735 8.83687C128.16 8.83687 129.254 9.09689 130.016 9.61668C130.779 10.137 131.316 10.9469 131.627 12.0463C131.938 13.1463 132.094 14.6663 132.094 16.6056V19.7552H125.14Z" fill="white"/>
<path id="path18" d="M51.0845 19.4109L46.358 2.40342H50.4822L52.1379 10.1123C52.5596 12.0124 52.8704 13.6321 53.0711 14.9715H53.1916C53.332 14.0117 53.6432 12.4022 54.1248 10.1424L55.8408 2.40342H59.965L55.1786 19.4109V27.5701H51.0845V19.4109Z" fill="white"/>
<path id="path20" d="M83.8107 9.18307V27.5701H80.5594L80.198 25.3205H80.1079C79.2246 27.0201 77.8999 27.8698 76.134 27.8698C74.9098 27.8698 74.0068 27.4703 73.4246 26.6701C72.8425 25.8707 72.5518 24.6205 72.5518 22.9208V9.18307H76.7061V22.6807C76.7061 23.5011 76.7966 24.0858 76.9771 24.4354C77.1576 24.7857 77.4588 24.9604 77.8801 24.9604C78.2415 24.9604 78.5877 24.8507 78.9186 24.6302C79.2499 24.4104 79.4956 24.131 79.6563 23.7908V9.18307H83.8107Z" fill="white"/>
<path id="path22" d="M105.12 9.18307V27.5701H101.869L101.507 25.3205H101.417C100.533 27.0201 99.2091 27.8698 97.4432 27.8698C96.219 27.8698 95.316 27.4703 94.7338 26.6701C94.1517 25.8707 93.861 24.6205 93.861 22.9208V9.18307H98.0153V22.6807C98.0153 23.5011 98.1054 24.0858 98.286 24.4354C98.4668 24.7857 98.768 24.9604 99.1893 24.9604C99.5507 24.9604 99.8969 24.8507 100.228 24.6302C100.559 24.4104 100.805 24.131 100.966 23.7908V9.18307H105.12Z" fill="white"/>
<path id="path24" d="M95.0995 5.73356H90.9753V27.5701H86.9113V5.73356H82.7871V2.40397H95.0995V5.73356Z" fill="white"/>
<path id="path26" d="M115.061 19.6224C115.061 20.9622 115.006 22.0122 114.895 22.7718C114.785 23.5322 114.6 24.0719 114.339 24.3915C114.078 24.7116 113.726 24.8714 113.285 24.8714C112.944 24.8714 112.628 24.7918 112.337 24.6313C112.045 24.4715 111.81 24.2317 111.629 23.9114V13.4732C111.77 12.9736 112.01 12.5635 112.352 12.2434C112.693 11.924 113.064 11.7636 113.465 11.7636C113.887 11.7636 114.213 11.9287 114.444 12.2584C114.674 12.5883 114.835 13.1433 114.926 13.9234C115.016 14.7031 115.061 15.8129 115.061 17.2526V19.6224ZM118.869 12.1222C118.618 10.9628 118.212 10.123 117.65 9.60266C117.088 9.08315 116.315 8.823 115.332 8.823C114.569 8.823 113.857 9.0381 113.195 9.46777C112.533 9.89786 112.02 10.4628 111.659 11.1627H111.629L111.629 1.47406H107.626V27.5697H111.057L111.479 25.8303H111.569C111.89 26.45 112.371 26.94 113.014 27.2999C113.656 27.6598 114.369 27.8398 115.152 27.8398C116.556 27.8398 117.59 27.1947 118.252 25.9051C118.914 24.6151 119.246 22.6009 119.246 19.8611V16.9516C119.246 14.8922 119.12 13.2824 118.869 12.1222Z" fill="white"/>
<path id="path28" d="M41.3141 4.90426C40.83 3.09972 39.4038 1.67835 37.5925 1.19606C34.3095 0.319548 21.1457 0.319548 21.1457 0.319548C21.1457 0.319548 7.98188 0.319548 4.69893 1.19606C2.88785 1.67835 1.46132 3.09972 0.977281 4.90426C0.0975952 8.17533 0.0975952 14.9999 0.0975952 14.9999C0.0975952 14.9999 0.0975952 21.8247 0.977281 25.0956C1.46132 26.9 2.88785 28.3215 4.69893 28.8037C7.98188 29.6805 21.1457 29.6805 21.1457 29.6805C21.1457 29.6805 34.3095 29.6805 37.5925 28.8037C39.4038 28.3215 40.83 26.9 41.3141 25.0956C42.1936 21.8247 42.1936 14.9999 42.1936 14.9999C42.1936 14.9999 42.1936 8.17533 41.3141 4.90426Z" fill="white"/>
<path id="path30" d="M16.936 21.2916V8.70834L27.8726 15.0001L16.936 21.2916Z" fill="#1B1912"/>
</g>
</g>
</svg>
