<svg width="155" height="45" viewBox="0 0 155 45" fill="none" xmlns="http://www.w3.org/2000/svg">
<path d="M4.25 39H0V6H4.25V10.125H8.5V16.3125H12.75V20.4375H17V24.5625H12.75V28.6875H8.5V34.875H4.25V39Z" fill="#CFB128"/>
<path d="M26.768 33.788C25.9147 33.788 25.2533 33.5533 24.784 33.084C24.336 32.6147 24.112 31.9533 24.112 31.1V13.34C24.112 12.4653 24.3573 11.804 24.848 11.356C25.3387 10.8867 26.032 10.652 26.928 10.652C27.6747 10.652 28.2613 10.8013 28.688 11.1C29.136 11.3773 29.5413 11.8467 29.904 12.508L36.784 24.86H35.664L42.512 12.508C42.896 11.8467 43.3013 11.3773 43.728 11.1C44.176 10.8013 44.7733 10.652 45.52 10.652C46.3733 10.652 47.024 10.8867 47.472 11.356C47.9413 11.804 48.176 12.4653 48.176 13.34V31.1C48.176 31.9533 47.952 32.6147 47.504 33.084C47.056 33.5533 46.3947 33.788 45.52 33.788C44.6667 33.788 44.0053 33.5533 43.536 33.084C43.088 32.6147 42.864 31.9533 42.864 31.1V20.092H43.536L38.384 29.052C38.0853 29.5213 37.7653 29.8733 37.424 30.108C37.104 30.3427 36.6667 30.46 36.112 30.46C35.5787 30.46 35.1413 30.3427 34.8 30.108C34.4587 29.8733 34.1493 29.5213 33.872 29.052L28.688 20.06H29.424V31.1C29.424 31.9533 29.2 32.6147 28.752 33.084C28.304 33.5533 27.6427 33.788 26.768 33.788ZM59.9133 33.852C58.1639 33.852 56.6386 33.5213 55.3373 32.86C54.0359 32.1987 53.0226 31.2493 52.2973 30.012C51.5719 28.7747 51.2093 27.3133 51.2093 25.628C51.2093 24.348 51.4119 23.2067 51.8173 22.204C52.2226 21.18 52.8093 20.316 53.5773 19.612C54.3453 18.8867 55.2626 18.3427 56.3293 17.98C57.3959 17.596 58.5906 17.404 59.9133 17.404C61.6626 17.404 63.1879 17.7347 64.4893 18.396C65.7906 19.0573 66.7933 20.0067 67.4973 21.244C68.2226 22.46 68.5853 23.9213 68.5853 25.628C68.5853 26.8867 68.3826 28.028 67.9773 29.052C67.5719 30.076 66.9853 30.9507 66.2173 31.676C65.4706 32.38 64.5533 32.924 63.4653 33.308C62.3986 33.6707 61.2146 33.852 59.9133 33.852ZM59.9133 29.66C60.4893 29.66 61.0013 29.5213 61.4493 29.244C61.8973 28.9453 62.2386 28.508 62.4733 27.932C62.7293 27.3347 62.8573 26.5667 62.8573 25.628C62.8573 24.1987 62.5799 23.1747 62.0253 22.556C61.4706 21.916 60.7666 21.596 59.9133 21.596C59.3373 21.596 58.8253 21.7347 58.3773 22.012C57.9293 22.2893 57.5773 22.7267 57.3213 23.324C57.0653 23.9 56.9373 24.668 56.9373 25.628C56.9373 27.036 57.2146 28.06 57.7693 28.7C58.3239 29.34 59.0386 29.66 59.9133 29.66ZM77.765 33.788C77.0183 33.788 76.3783 33.6067 75.845 33.244C75.333 32.86 74.9063 32.2947 74.565 31.548L69.989 21.084C69.733 20.444 69.6477 19.8467 69.733 19.292C69.8183 18.7373 70.085 18.3 70.533 17.98C71.0023 17.6387 71.6423 17.468 72.453 17.468C73.1357 17.468 73.6797 17.628 74.085 17.948C74.5117 18.2467 74.8957 18.844 75.237 19.74L78.469 28.06H77.381L80.773 19.708C81.1143 18.8333 81.4983 18.2467 81.925 17.948C82.3517 17.628 82.9383 17.468 83.685 17.468C84.325 17.468 84.837 17.6387 85.221 17.98C85.6263 18.3 85.8717 18.7373 85.957 19.292C86.0423 19.8467 85.9357 20.444 85.637 21.084L80.965 31.58C80.645 32.3267 80.2183 32.8813 79.685 33.244C79.173 33.6067 78.533 33.788 77.765 33.788ZM90.9488 33.788C90.0528 33.788 89.3594 33.5213 88.8688 32.988C88.3781 32.4547 88.1328 31.6867 88.1328 30.684V20.572C88.1328 19.5693 88.3781 18.8013 88.8688 18.268C89.3594 17.7347 90.0528 17.468 90.9488 17.468C91.8661 17.468 92.5701 17.7347 93.0608 18.268C93.5728 18.8013 93.8288 19.5693 93.8288 20.572V30.684C93.8288 31.6867 93.5834 32.4547 93.0928 32.988C92.6021 33.5213 91.8874 33.788 90.9488 33.788ZM90.9488 15.196C89.9461 15.196 89.1674 14.9613 88.6128 14.492C88.0794 14.0227 87.8128 13.34 87.8128 12.444C87.8128 11.5693 88.0794 10.8973 88.6128 10.428C89.1674 9.95867 89.9461 9.724 90.9488 9.724C91.9941 9.724 92.7834 9.95867 93.3168 10.428C93.8501 10.8973 94.1168 11.5693 94.1168 12.444C94.1168 13.34 93.8501 14.0227 93.3168 14.492C92.7834 14.9613 91.9941 15.196 90.9488 15.196ZM105.709 33.852C103.789 33.852 102.125 33.5213 100.717 32.86C99.3301 32.1773 98.2634 31.2173 97.5168 29.98C96.7701 28.7427 96.3968 27.2813 96.3968 25.596C96.3968 23.9747 96.7488 22.556 97.4528 21.34C98.1781 20.1027 99.1594 19.1427 100.397 18.46C101.655 17.756 103.085 17.404 104.685 17.404C105.858 17.404 106.925 17.596 107.885 17.98C108.845 18.3427 109.666 18.8867 110.349 19.612C111.031 20.316 111.543 21.1693 111.885 22.172C112.247 23.1747 112.429 24.2947 112.429 25.532C112.429 25.9587 112.311 26.2787 112.077 26.492C111.842 26.684 111.469 26.78 110.957 26.78H101.165V24.092H108.269L107.757 24.508C107.757 23.7187 107.65 23.0787 107.437 22.588C107.223 22.0973 106.903 21.724 106.477 21.468C106.071 21.212 105.559 21.084 104.941 21.084C104.279 21.084 103.703 21.244 103.213 21.564C102.743 21.8627 102.381 22.3107 102.125 22.908C101.869 23.5053 101.741 24.252 101.741 25.148V25.436C101.741 26.9507 102.071 28.0387 102.733 28.7C103.415 29.34 104.461 29.66 105.869 29.66C106.338 29.66 106.871 29.6067 107.469 29.5C108.087 29.372 108.674 29.2013 109.229 28.988C109.783 28.7747 110.263 28.7427 110.669 28.892C111.074 29.02 111.383 29.2547 111.597 29.596C111.831 29.916 111.959 30.2893 111.981 30.716C112.002 31.1213 111.906 31.5267 111.693 31.932C111.479 32.316 111.127 32.6147 110.637 32.828C109.89 33.1693 109.09 33.4253 108.237 33.596C107.405 33.7667 106.562 33.852 105.709 33.852ZM123.459 33.852C121.539 33.852 119.875 33.5213 118.467 32.86C117.08 32.1773 116.013 31.2173 115.267 29.98C114.52 28.7427 114.147 27.2813 114.147 25.596C114.147 23.9747 114.499 22.556 115.203 21.34C115.928 20.1027 116.909 19.1427 118.147 18.46C119.405 17.756 120.835 17.404 122.435 17.404C123.608 17.404 124.675 17.596 125.635 17.98C126.595 18.3427 127.416 18.8867 128.099 19.612C128.781 20.316 129.293 21.1693 129.635 22.172C129.997 23.1747 130.179 24.2947 130.179 25.532C130.179 25.9587 130.061 26.2787 129.827 26.492C129.592 26.684 129.219 26.78 128.707 26.78H118.915V24.092H126.019L125.507 24.508C125.507 23.7187 125.4 23.0787 125.187 22.588C124.973 22.0973 124.653 21.724 124.227 21.468C123.821 21.212 123.309 21.084 122.691 21.084C122.029 21.084 121.453 21.244 120.963 21.564C120.493 21.8627 120.131 22.3107 119.875 22.908C119.619 23.5053 119.491 24.252 119.491 25.148V25.436C119.491 26.9507 119.821 28.0387 120.483 28.7C121.165 29.34 122.211 29.66 123.619 29.66C124.088 29.66 124.621 29.6067 125.219 29.5C125.837 29.372 126.424 29.2013 126.979 28.988C127.533 28.7747 128.013 28.7427 128.419 28.892C128.824 29.02 129.133 29.2547 129.347 29.596C129.581 29.916 129.709 30.2893 129.731 30.716C129.752 31.1213 129.656 31.5267 129.443 31.932C129.229 32.316 128.877 32.6147 128.387 32.828C127.64 33.1693 126.84 33.4253 125.987 33.596C125.155 33.7667 124.312 33.852 123.459 33.852ZM133.986 33.5C133.41 33.5 132.94 33.3613 132.578 33.084C132.215 32.7853 131.97 32.412 131.842 31.964C131.714 31.516 131.714 31.036 131.842 30.524C131.991 29.9907 132.268 29.5 132.674 29.052L140.098 20.668V21.948H133.762C133.079 21.948 132.556 21.7667 132.194 21.404C131.831 21.0413 131.65 20.5187 131.65 19.836C131.65 19.1533 131.831 18.6413 132.194 18.3C132.556 17.9373 133.079 17.756 133.762 17.756H142.818C143.458 17.756 143.98 17.9053 144.386 18.204C144.791 18.4813 145.058 18.844 145.186 19.292C145.335 19.74 145.346 20.22 145.218 20.732C145.09 21.244 144.823 21.724 144.418 22.172L136.802 30.78V29.308H143.618C145.047 29.308 145.762 30.0013 145.762 31.388C145.762 32.0707 145.58 32.5933 145.218 32.956C144.855 33.3187 144.322 33.5 143.618 33.5H133.986ZM150.54 26.108C149.985 26.108 149.537 25.9267 149.196 25.564C148.876 25.2013 148.673 24.7 148.588 24.06L147.468 14.396C147.318 13.2867 147.521 12.3907 148.076 11.708C148.63 11.004 149.452 10.652 150.54 10.652C151.649 10.652 152.47 11.004 153.004 11.708C153.537 12.3907 153.729 13.2867 153.58 14.396L152.492 24.06C152.406 24.7 152.204 25.2013 151.884 25.564C151.564 25.9267 151.116 26.108 150.54 26.108ZM150.54 33.692C149.58 33.692 148.812 33.404 148.236 32.828C147.681 32.252 147.404 31.4947 147.404 30.556C147.404 29.6387 147.681 28.9027 148.236 28.348C148.812 27.772 149.58 27.484 150.54 27.484C151.542 27.484 152.31 27.772 152.844 28.348C153.398 28.9027 153.676 29.6387 153.676 30.556C153.676 31.4947 153.398 32.252 152.844 32.828C152.31 33.404 151.542 33.692 150.54 33.692Z" fill="#D9D9D9"/>
</svg>
